<svg xmlns="http://www.w3.org/2000/svg" viewBox="260 296 734 215">
<g>
<path d="M 409.50 482.87 C400.83,490.01 397.85,491.90 396.25,491.30 C394.06,490.48 394.89,487.75 399.19,481.54 C408.07,468.76 435.57,430.23 439.74,424.75 C442.15,421.59 443.98,418.93 443.81,418.85 C443.64,418.77 437.42,418.44 430.00,418.10 C420.70,417.69 416.50,417.14 416.50,416.33 C416.50,415.16 438.16,389.17 447.40,379.25 C451.85,374.47 452.68,374.00 456.65,374.00 C459.04,374.00 461.00,374.47 461.00,375.04 C461.00,375.61 454.88,383.37 447.41,392.29 L 433.82 408.50 L 446.45 408.78 C455.94,408.99 459.22,409.40 459.60,410.41 C459.89,411.15 456.07,417.33 451.11,424.13 C433.24,448.65 428.00,456.00 428.00,456.52 C428.00,456.82 434.19,451.83 441.75,445.43 C449.31,439.03 465.26,425.63 477.18,415.65 L 498.86 397.50 L 483.03 397.23 C471.16,397.02 466.92,396.61 466.07,395.59 C465.18,394.51 467.34,391.18 476.24,379.86 C482.46,371.96 489.71,362.67 492.36,359.21 C492.78,358.66 493.18,358.15 493.54,357.69 C495.26,355.47 496.24,354.21 495.95,353.73 C495.55,353.10 492.90,353.86 486.70,355.63 C485.72,355.91 484.66,356.22 483.50,356.55 C479.10,357.80 450.60,365.64 420.17,373.97 C362.84,389.66 362.00,389.82 362.00,385.03 C362.00,384.09 362.79,382.62 363.75,381.77 C364.71,380.92 376.98,377.01 391.00,373.08 C405.02,369.14 438.87,359.59 466.22,351.84 C493.56,344.10 516.67,338.04 517.58,338.39 C519.08,338.97 519.07,339.25 517.45,341.76 C516.48,343.27 508.33,353.80 499.34,365.16 C490.35,376.53 483.00,386.30 483.00,386.89 C483.00,387.59 489.17,388.05 501.24,388.23 C516.93,388.46 519.52,388.72 519.78,390.08 C519.97,391.08 515.43,395.49 507.42,402.08 C500.45,407.81 477.14,427.04 455.62,444.80 C434.11,462.57 413.35,479.70 409.50,482.87 ZM 388.32 474.55 C380.02,477.51 366.59,475.39 353.52,469.07 C345.32,465.10 334.64,456.59 333.55,453.15 C333.14,451.86 330.67,450.98 323.86,449.69 C311.43,447.34 302.57,442.60 293.20,433.26 C280.37,420.49 275.27,404.89 279.35,390.86 C281.09,384.88 287.19,376.99 292.00,374.50 C294.18,373.37 294.90,372.12 295.44,368.55 C296.61,360.76 302.24,351.06 309.90,343.67 C318.81,335.07 325.68,331.80 336.16,331.20 C343.75,330.76 343.92,330.69 347.08,326.76 C353.35,318.95 371.84,313.17 381.76,315.91 C393.45,319.13 400.00,332.11 400.00,352.02 C400.00,359.26 399.86,359.74 397.45,360.84 C391.61,363.50 391.21,362.69 390.78,347.50 C390.45,335.88 387.90,329.13 382.61,325.91 C376.68,322.29 363.52,324.08 356.45,329.47 C351.53,333.23 351.88,335.81 358.11,341.41 C362.68,345.52 363.72,346.00 368.04,346.00 C372.05,346.00 373.20,346.44 374.93,348.63 C376.07,350.08 377.00,352.59 377.00,354.21 C377.00,358.30 372.18,363.00 368.00,363.00 C364.57,363.00 359.00,358.41 359.00,355.59 C359.00,354.73 355.59,350.64 351.41,346.51 C344.06,339.23 343.68,339.00 338.95,339.00 C327.22,339.00 312.68,349.18 306.85,361.50 C305.28,364.80 304.00,368.01 304.00,368.64 C304.00,369.47 307.51,369.64 316.69,369.24 C329.13,368.70 329.44,368.63 331.78,365.85 C333.81,363.44 334.93,363.00 339.02,363.00 C343.05,363.00 344.20,363.44 345.93,365.63 C352.63,374.15 342.61,384.02 333.02,378.35 C330.56,376.90 328.61,376.82 316.37,377.70 C301.34,378.78 296.98,380.19 291.81,385.66 C288.05,389.64 287.00,393.05 287.00,401.32 C287.00,407.22 287.54,409.63 290.00,414.85 C296.63,428.84 313.32,440.72 327.84,441.76 C334.32,442.22 334.61,442.14 335.75,439.65 C337.06,436.78 339.99,435.69 345.11,436.18 C347.81,436.43 348.87,437.21 350.35,440.00 C352.65,444.37 351.49,448.12 346.98,450.87 L 343.90 452.74 L 347.20 455.53 C355.56,462.59 376.18,469.32 383.66,467.43 C385.76,466.89 388.20,465.30 389.40,463.68 C391.31,461.12 391.55,459.14 392.00,442.18 L 392.50 423.50 L 400.00 422.88 L 399.98 442.19 C399.96,458.78 399.70,462.06 398.12,465.50 C395.87,470.40 393.30,472.77 388.32,474.55 ZM 583.26 418.46 C572.12,420.13 569.60,420.20 563.41,418.97 C553.00,416.91 546.59,412.54 543.24,405.22 C540.97,400.26 540.79,398.88 541.24,390.13 C542.06,374.38 547.65,363.74 559.15,356.06 C569.46,349.17 582.87,346.62 596.56,348.92 C602.07,349.85 604.54,350.27 605.40,351.68 C606.10,352.82 605.72,354.63 605.02,357.91 L 605.02 357.93 C603.84,363.47 603.52,363.98 601.61,363.37 C577.87,355.75 559.06,366.48 557.39,388.60 C556.98,394.06 557.25,396.23 558.68,398.98 C561.50,404.37 566.21,407.00 573.08,407.00 C582.08,407.00 583.60,406.07 584.40,400.07 C584.77,397.27 585.32,394.33 585.62,393.54 C586.05,392.43 584.98,392.04 580.84,391.81 C578.14,391.65 576.75,391.64 576.16,390.94 C575.53,390.21 575.78,388.73 576.32,385.55 C576.37,385.29 576.41,385.03 576.46,384.75 L 577.09 381.00 L 589.55 381.00 C596.40,381.00 602.00,381.34 602.00,381.75 C602.00,384.81 595.49,414.75 594.61,415.71 C594.00,416.38 588.89,417.62 583.26,418.46 ZM 372.39 432.04 C368.30,433.60 365.71,433.15 362.03,430.24 C358.58,427.52 358.42,427.50 338.53,426.88 C327.51,426.53 316.91,425.75 314.97,425.14 C299.79,420.36 290.55,403.76 299.08,396.59 C302.95,393.33 306.27,393.31 316.29,396.51 C326.39,399.74 328.48,399.66 332.78,395.89 C335.82,393.22 336.88,392.85 340.26,393.31 C342.42,393.60 345.29,394.86 346.62,396.11 L 349.05 398.39 L 365.27 397.18 C374.20,396.52 387.01,395.69 393.75,395.33 C404.94,394.75 406.00,394.84 406.00,396.42 C406.00,397.38 404.76,399.40 403.24,400.92 C400.54,403.62 400.13,403.69 385.49,404.32 C350.12,405.85 347.73,406.10 344.67,408.65 C341.22,411.52 337.55,411.63 333.23,409.00 C331.43,407.90 328.20,407.00 326.06,407.00 C323.93,407.00 319.33,406.11 315.84,405.01 C312.35,403.92 308.21,403.02 306.64,403.01 C304.03,403.00 303.84,403.24 304.42,405.75 C305.23,409.30 312.19,415.65 316.86,417.09 C318.86,417.71 329.14,418.45 339.69,418.73 C357.97,419.21 359.05,419.13 362.31,417.12 C367.21,414.09 371.51,414.36 375.08,417.92 C376.68,419.53 378.00,421.80 378.00,422.97 C378.00,426.36 375.13,431.00 372.39,432.04 ZM 639.50 417.67 C633.01,419.35 622.53,419.28 617.64,417.54 C609.00,414.46 605.38,407.92 606.29,397.09 C607.71,380.32 618.32,369.37 634.25,368.22 C639.19,367.86 642.22,368.19 645.52,369.46 C651.02,371.56 653.00,374.90 653.00,382.08 C653.00,386.85 652.66,387.61 648.74,391.52 C643.69,396.58 636.74,399.00 627.32,399.00 C621.37,399.00 621.00,399.14 621.00,401.33 C621.00,402.60 622.15,404.73 623.56,406.06 C625.70,408.06 627.07,408.44 631.81,408.33 C634.94,408.26 639.43,407.42 641.79,406.47 C644.15,405.52 646.22,404.92 646.38,405.12 C646.55,405.33 646.19,407.95 645.59,410.94 L 644.50 416.39 ZM 670.85 402.31 L 667.71 418.00 L 661.41 418.00 C657.95,418.00 654.87,417.61 654.58,417.12 C654.28,416.64 656.05,405.75 658.52,392.91 C660.98,380.08 663.00,369.45 663.00,369.29 C663.00,369.13 665.92,369.00 669.50,369.00 L 676.00 369.00 L 676.00 372.15 C676.00,375.11 676.11,375.21 677.77,373.71 C685.61,366.61 701.00,366.24 704.53,373.06 C706.66,377.18 706.25,383.49 702.66,401.50 L 699.47 417.50 L 693.60 417.80 C690.37,417.97 687.19,417.90 686.53,417.65 C685.64,417.31 685.92,414.29 687.62,405.85 C688.88,399.61 690.21,391.71 690.59,388.29 C691.24,382.31 691.17,382.04 688.71,380.91 C685.09,379.26 679.82,380.54 676.67,383.82 C674.40,386.19 673.51,389.03 670.85,402.31 ZM 461.90 343.88 C460.14,344.50 458.65,345.00 458.58,345.00 C458.51,345.00 455.77,342.98 452.48,340.51 C439.89,331.06 421.51,324.00 409.50,324.00 C403.61,324.00 400.61,321.78 401.17,317.83 C401.49,315.61 401.84,315.51 408.94,315.71 C420.15,316.03 429.32,318.50 441.50,324.46 C452.61,329.89 464.23,338.23 464.79,341.17 C464.99,342.21 463.97,343.16 461.90,343.88 ZM 622.00 389.58 C622.00,391.02 622.72,391.16 627.16,390.57 C636.22,389.37 640.86,385.57 639.57,380.41 C639.06,378.40 638.34,378.00 635.23,378.00 C628.81,378.01 622.00,383.97 622.00,389.58 Z" fill="rgb(250,250,250)"/>
<path d="M 643.98 463.51 C642.13,464.47 638.22,465.00 633.05,465.00 L 625.00 465.00 L 625.00 441.00 L 633.28 441.00 C643.89,441.00 646.27,442.39 645.90,448.36 C645.76,450.64 646.19,453.80 646.85,455.38 C648.42,459.15 647.53,461.68 643.98,463.51 ZM 586.18 462.50 C585.07,464.94 581.00,466.10 581.00,463.98 C581.00,463.42 583.48,458.02 586.51,451.98 C593.96,437.13 594.62,437.15 602.21,452.39 C605.33,458.66 607.61,464.06 607.27,464.39 C605.83,465.83 602.87,464.80 601.82,462.50 C600.77,460.20 600.15,460.00 594.00,460.00 C587.85,460.00 587.23,460.20 586.18,462.50 ZM 684.37 462.93 C682.38,464.49 680.35,464.98 676.12,464.94 C667.94,464.84 664.15,463.00 665.99,460.01 C666.69,458.88 667.36,458.84 669.48,459.81 C673.31,461.55 680.93,461.35 681.64,459.49 C682.59,457.03 680.29,455.30 675.20,454.62 C668.94,453.79 666.00,451.68 666.00,448.01 C666.00,442.67 670.39,440.40 679.11,441.24 C684.59,441.76 686.59,443.03 685.68,445.40 C685.15,446.78 684.71,446.78 681.44,445.41 C677.54,443.78 672.88,444.24 671.06,446.43 C669.53,448.27 671.49,449.61 677.00,450.50 C681.85,451.29 685.06,452.65 686.23,454.40 C687.86,456.83 686.97,460.88 684.37,462.93 ZM 564.81 462.75 C564.52,464.25 563.08,464.54 554.74,464.79 L 545.00 465.07 L 545.00 441.00 L 550.00 441.00 L 550.00 461.00 L 557.57 461.00 C564.25,461.00 565.11,461.21 564.81,462.75 ZM 630.00 458.00 C630.00,460.96 630.07,461.00 635.38,461.00 C641.47,461.00 644.20,459.15 642.00,456.50 C641.18,455.51 638.94,455.00 635.38,455.00 C630.07,455.00 630.00,455.04 630.00,458.00 ZM 630.00 448.00 C630.00,450.87 630.19,451.00 634.31,451.00 C639.40,451.00 642.40,449.21 641.45,446.72 C640.93,445.39 639.58,445.00 635.39,445.00 C630.07,445.00 630.00,445.04 630.00,448.00 ZM 590.00 455.61 C590.00,455.82 591.80,456.00 594.00,456.00 C596.20,456.00 598.00,455.76 598.00,455.46 C598.00,455.16 597.06,453.07 595.91,450.81 L 593.81 446.71 L 591.91 450.96 C590.86,453.30 590.00,455.39 590.00,455.61 Z" fill="rgb(162,163,165)"/>
<path d="M 777.12 426.65 L 775.39 436.50 L 768.69 436.80 L 762.00 437.09 L 762.00 434.17 C762.00,432.56 762.65,428.15 763.45,424.37 C764.25,420.59 767.00,406.59 769.57,393.25 L 774.25 369.00 L 780.62 369.00 C786.65,369.00 787.00,369.13 787.00,371.35 L 787.00 373.69 L 792.75 370.77 C797.63,368.28 799.41,367.89 804.52,368.20 C815.29,368.85 819.52,374.45 818.83,387.17 C818.17,399.52 811.09,411.36 801.62,415.94 C796.88,418.24 785.38,418.81 781.85,416.92 C780.74,416.32 779.61,416.06 779.34,416.32 C779.08,416.59 778.08,421.24 777.12,426.65 ZM 746.06 416.55 C737.29,419.64 721.29,419.24 712.87,415.72 L 709.24 414.20 L 710.20 408.85 C711.48,401.67 712.09,401.23 717.76,403.36 C720.37,404.34 725.67,405.39 729.54,405.70 C735.47,406.17 737.24,405.92 740.79,404.11 C744.46,402.23 745.00,401.53 745.00,398.63 C745.00,394.41 742.90,392.51 735.41,389.97 C726.96,387.09 721.91,383.98 719.19,379.98 C717.17,377.00 716.88,375.55 717.19,369.89 C717.48,364.52 718.08,362.59 720.36,359.60 C726.07,352.10 736.25,348.00 749.13,348.00 C757.26,348.00 766.02,349.88 766.75,351.78 C767.04,352.55 766.73,355.63 766.06,358.63 C765.09,362.96 764.49,363.98 763.17,363.59 C747.74,359.00 734.20,360.96 733.17,367.93 C732.68,371.26 735.37,373.56 743.86,377.06 C758.55,383.12 762.01,386.64 761.97,395.50 C761.94,405.09 755.90,413.08 746.06,416.55 ZM 895.61 416.57 C895.01,418.13 883.54,418.69 882.62,417.20 C882.19,416.50 886.66,390.58 889.95,374.74 L 891.14 369.00 L 897.57 369.00 C903.72,369.00 904.00,369.10 904.00,371.45 L 904.00 373.89 L 909.75 370.86 C914.80,368.19 916.27,367.87 921.88,368.22 C927.63,368.57 928.56,368.94 931.27,371.97 C934.20,375.25 934.26,375.52 933.65,382.92 C933.30,387.09 931.77,396.58 930.23,404.00 L 927.43 417.50 L 921.20 417.80 C913.87,418.15 913.27,417.43 914.84,410.26 C917.50,398.12 919.11,387.83 918.82,384.83 C918.25,378.90 910.97,378.38 904.87,383.83 C902.02,386.38 901.52,387.81 898.96,400.88 C897.42,408.72 895.91,415.79 895.61,416.57 ZM 966.46 416.88 C964.85,418.60 952.72,419.32 948.29,417.95 C941.54,415.87 940.43,409.17 944.00,392.00 L 944.13 391.40 C945.75,383.57 946.26,381.12 945.35,380.35 C944.93,380.00 944.22,380.00 943.18,380.00 L 943.00 380.00 C939.72,380.00 939.48,379.30 940.98,374.06 C942.07,370.27 943.45,369.04 946.61,369.02 C948.38,369.00 948.93,368.03 949.98,363.09 C951.38,356.48 952.03,356.04 960.33,356.01 C965.07,356.00 965.15,356.05 964.61,358.75 C964.31,360.26 963.78,363.19 963.42,365.25 L 962.78 369.00 L 974.12 369.00 L 973.43 373.75 C973.06,376.36 972.55,378.84 972.31,379.25 C972.08,379.66 969.25,380.00 966.02,380.00 L 960.17 380.00 L 959.04 385.25 C958.42,388.14 957.39,393.56 956.74,397.30 C955.19,406.35 955.94,407.51 963.35,407.48 L 968.95 407.45 L 968.35 411.48 C968.02,413.69 967.17,416.12 966.46,416.88 ZM 834.53 416.75 C833.87,418.52 822.11,418.46 821.43,416.68 C821.00,415.57 824.37,396.85 829.05,374.25 L 830.14 369.00 L 843.26 369.00 L 842.08 376.30 L 844.79 373.76 C848.69,370.12 853.36,368.00 857.52,368.00 C860.49,368.00 861.04,368.31 860.62,369.75 C860.34,370.71 859.82,373.59 859.46,376.15 L 858.80 380.79 L 853.27 381.49 C848.78,382.05 846.98,382.88 843.79,385.86 C839.96,389.43 839.77,389.92 837.42,402.52 C836.08,409.66 834.78,416.06 834.53,416.75 ZM 876.60 397.00 L 872.50 417.50 L 865.75 417.80 C860.69,418.02 859.00,417.76 859.00,416.78 C859.00,416.06 861.03,405.26 863.50,392.77 C865.97,380.29 868.00,369.84 868.00,369.54 C868.00,369.24 871.12,369.00 874.94,369.00 L 881.87 369.00 L 881.28 372.75 C880.96,374.81 878.85,385.73 876.60,397.00 ZM 784.75 406.84 C788.42,408.18 789.37,408.19 792.68,406.93 C798.71,404.65 803.54,397.64 804.65,389.56 C805.20,385.53 804.97,384.81 802.21,382.05 C798.83,378.68 796.57,378.32 791.62,380.39 C787.17,382.24 784.55,386.28 783.16,393.42 C781.26,403.13 781.56,405.67 784.75,406.84 ZM 883.20 360.31 C878.54,364.78 870.72,363.41 869.97,358.00 C869.14,352.03 872.17,349.00 878.96,349.00 C882.85,349.00 884.15,349.42 884.96,350.93 C886.73,354.24 886.11,357.52 883.20,360.31 Z" fill="rgb(229,137,34)"/>

</g>
</svg>